# xmcd
#
# Track frame offsets: 
#        150
#        20085
#        35808
#        53866
#        72912
#        82358
#        103655
#        123663
#        146653
#        167478
#
# Disc length: 2652 seconds
#
# Revision: 2
# Processed by: cddbd v1.5.2PL0 Copyright (c) Steve Scherf et al.
# Submitted via: ExactAudioCopy v0.95b4
#
DISCID=960a5a0a
DTITLE=Tracy Chapman - Matters Of The Heart
DYEAR=1992
DGENRE=
TTITLE0=Bang Bang Bang
TTITLE1=So
TTITLE2=I Used To Be A Sailor
TTITLE3=The Love That You Had
TTITLE4=Woman's Work
TTITLE5=If These Are The Things
TTITLE6=Short Supply
TTITLE7=Dreaming On A World
TTITLE8=Open Arms
TTITLE9=Matters Of The Heart
EXTD=
EXTT0=
EXTT1=
EXTT2=
EXTT3=
EXTT4=
EXTT5=
EXTT6=
EXTT7=
EXTT8=
EXTT9=
PLAYORDER=
